# xmcd
# 
# Track frame offsets:
#     150
#     8428
#     16685
#     24458
#     35665
#     47727
#     55412
#     65473
#     75738
#     87775
#     96870
#     106607
#     118376
#     128164
#     138335
# 
# Disc length: 1970
# 
# Revision: 5
# Processed by: cddbd v1.5.2PL0 Copyright (c) Steve Scherf et al.
# Submitted via: fre:ac v1.0.31
# 
DISCID=b707b00f
DTITLE=Johnny Cash - The Ultimate Collection [CD3]
DYEAR=2008
DGENRE=Country
TTITLE0=Sugartime
TTITLE1=Always alone
TTITLE2=Rock n roll ruby
TTITLE3=Mean eyed cat
TTITLE4=Give my love to Rose
TTITLE5=Hey good lookin'
TTITLE6=I could never be ashamed of you
TTITLE7=You win again
TTITLE8=Goodnight Irene
TTITLE9=Blue train
TTITLE10=Born to lose
TTITLE11=Doin' my time
TTITLE12=Rock island line
TTITLE13=I was there when it happened
TTITLE14=Down the street to 301
EXTD=
EXTT0=
EXTT1=
EXTT2=
EXTT3=
EXTT4=
EXTT5=
EXTT6=
EXTT7=
EXTT8=
EXTT9=
EXTT10=
EXTT11=
EXTT12=
EXTT13=
EXTT14=
PLAYORDER=
